<svg viewBox="0 0 395.52 119.69775535590254" height="119.69775535590254" width="395.52" data-background-color="#97d5ee" preserveAspectRatio="xMidYMid meet" id="tight-bounds" xmlns="http://www.w3.org/2000/svg" xmlns:xlink="http://www.w3.org/1999/xlink"><g><svg viewBox="0 0 612.5733780904802 185.38546305676854" height="119.69775535590254" width="395.52"><g transform="matrix(1,0,0,1,217.0533780904803,25.621290480349344)"><svg viewBox="0 0 395.52 134.14288209606985" height="134.14288209606985" width="395.52"><g id="textblocktransform"><svg viewBox="0 0 395.52 134.14288209606985" height="134.14288209606985" width="395.52" id="textblock"><g><svg viewBox="0 0 395.52 134.14288209606985" height="134.14288209606985" width="395.52"><g transform="matrix(1,0,0,1,0,0)"><svg width="395.52" viewBox="4 -35.5 134.1699981689453 45.51000213623047" height="134.14288209606985" data-palette-color="#db3e25"><path d="M7.15 0L4 0 4-35.01 7.15-35.01 7.15 0ZM34.35-8.11L34.35-8.11Q34.35-6.32 33.68-4.76 33.01-3.2 31.83-2.03 30.66-0.85 29.1-0.18 27.54 0.49 25.75 0.49L25.75 0.49 23.26 0.49Q21.48 0.49 19.91-0.18 18.33-0.85 17.16-2.03 15.99-3.2 15.32-4.76 14.65-6.32 14.65-8.11L14.65-8.11 14.65-26.9Q14.65-28.69 15.32-30.25 15.99-31.81 17.16-32.98 18.33-34.16 19.91-34.83 21.48-35.5 23.26-35.5L23.26-35.5 25.75-35.5Q27.54-35.5 29.1-34.83 30.66-34.16 31.83-32.98 33.01-31.81 33.68-30.25 34.35-28.69 34.35-26.9L34.35-26.9 34.35-25.49 31.2-25 31.2-26.9Q31.2-28.08 30.76-29.09 30.32-30.1 29.56-30.86 28.81-31.62 27.79-32.06 26.78-32.5 25.61-32.5L25.61-32.5 23.41-32.5Q22.24-32.5 21.23-32.06 20.21-31.62 19.44-30.86 18.67-30.1 18.23-29.09 17.8-28.08 17.8-26.9L17.8-26.9 17.8-8.11Q17.8-6.93 18.23-5.92 18.67-4.91 19.44-4.14 20.21-3.37 21.23-2.93 22.24-2.49 23.41-2.49L23.41-2.49 25.61-2.49Q26.78-2.49 27.79-2.93 28.81-3.37 29.56-4.14 30.32-4.91 30.76-5.92 31.2-6.93 31.2-8.11L31.2-8.11 31.2-10.01 34.35-9.5 34.35-8.11ZM57.05 0L56.05 0 54.39-2.49Q53.36-1.15 51.83-0.33 50.29 0.49 48.46 0.49L48.46 0.49 47.7 0.49Q46.19 0.49 44.84-0.09 43.5-0.66 42.5-1.66 41.5-2.66 40.93-4 40.35-5.35 40.35-6.86L40.35-6.86 40.35-7.1Q40.35-8.62 40.93-9.96 41.5-11.3 42.5-12.3 43.5-13.31 44.84-13.88 46.19-14.45 47.7-14.45L47.7-14.45 54.05-14.45 54.05-18.31Q54.05-19.21 53.71-20.01 53.36-20.8 52.78-21.39 52.19-21.97 51.4-22.31 50.61-22.66 49.7-22.66L49.7-22.66 47.94-22.66Q47.04-22.66 46.25-22.31 45.45-21.97 44.87-21.39 44.28-20.8 43.94-20.01 43.6-19.21 43.6-18.31L43.6-18.31 43.6-17.41 40.6-17.9 40.6-18.14Q40.6-19.65 41.17-21 41.74-22.34 42.74-23.34 43.75-24.34 45.09-24.91 46.43-25.49 47.94-25.49L47.94-25.49 49.7-25.49Q51.22-25.49 52.56-24.91 53.9-24.34 54.9-23.34 55.9-22.34 56.48-21 57.05-19.65 57.05-18.14L57.05-18.14 57.05 0ZM54.05-6.69L54.05-12.11 47.7-12.11Q46.8-12.11 46-11.77 45.21-11.43 44.62-10.83 44.04-10.23 43.7-9.44 43.35-8.64 43.35-7.74L43.35-7.74 43.35-6.69Q43.35-5.79 43.7-4.99 44.04-4.2 44.62-3.61 45.21-3.03 46-2.69 46.8-2.34 47.7-2.34L47.7-2.34 49.7-2.34Q50.61-2.34 51.4-2.69 52.19-3.03 52.78-3.61 53.36-4.2 53.71-4.99 54.05-5.79 54.05-6.69L54.05-6.69ZM79.75 0L76.75 0 76.75-18.31Q76.75-19.21 76.41-20.01 76.07-20.8 75.48-21.39 74.89-21.97 74.1-22.31 73.31-22.66 72.4-22.66L72.4-22.66 70.4-22.66Q69.5-22.66 68.71-22.31 67.91-21.97 67.33-21.39 66.74-20.8 66.4-20.01 66.06-19.21 66.06-18.31L66.06-18.31 66.06 0 63.05 0 63.05-25 64.06-25 65.69-22.46Q66.72-23.85 68.27-24.67 69.82-25.49 71.65-25.49L71.65-25.49 72.4-25.49Q73.92-25.49 75.26-24.91 76.6-24.34 77.6-23.34 78.61-22.34 79.18-21 79.75-19.65 79.75-18.14L79.75-18.14 79.75 0ZM106.46-32.01L89.91-32.01 89.91-18.99 103.31-18.99 103.31-15.99 89.91-15.99 89.91 0 86.76 0 86.76-35.01 106.46-35.01 106.46-32.01ZM114.47 0L111.46 0 111.46-35.01 114.47-35.01 114.47 0ZM138.17-25L125.52 10.01 122.62 10.01 127.06-2.15 118.95-25 121.96-25 128.48-6.05 128.57-4.76 128.67-6.05 135.17-25 138.17-25Z" opacity="1" transform="matrix(1,0,0,1,0,0)" fill="#db3e25" class="wordmark-text-0" data-fill-palette-color="primary" id="text-0"></path></svg></g></svg></g></svg></g></svg></g><g><svg viewBox="0 0 185.38546305676851 185.38546305676854" height="185.38546305676854" width="185.38546305676851"><g><svg></svg></g><g id="icon-0"><svg viewBox="0 0 185.38546305676851 185.38546305676854" height="185.38546305676854" width="185.38546305676851"><g><path xmlns="http://www.w3.org/2000/svg" d="M55.616 185.385c-30.716 0-55.616-24.9-55.616-55.615v-74.154c0-30.716 24.9-55.616 55.616-55.616h74.154c30.716 0 55.616 24.9 55.615 55.616v74.154c0 30.716-24.9 55.616-55.615 55.615z" fill="#db3e25" fill-rule="nonzero" stroke="none" stroke-width="1" stroke-linecap="butt" stroke-linejoin="miter" stroke-miterlimit="10" stroke-dasharray="" stroke-dashoffset="0" font-family="none" font-weight="none" font-size="none" text-anchor="none" style="mix-blend-mode: normal" data-fill-palette-color="accent"></path></g><g transform="matrix(1,0,0,1,37.0770926113537,44.734622916724085)"><svg viewBox="0 0 111.23127783406112 95.91621722332037" height="95.91621722332037" width="111.23127783406112"><g><svg xmlns="http://www.w3.org/2000/svg" xmlns:xlink="http://www.w3.org/1999/xlink" version="1.1" x="0" y="0" viewBox="2.671999931335449 9.37600040435791 94.6570053100586 81.6240005493164" enable-background="new 0 0 100 100" xml:space="preserve" height="95.91621722332037" width="111.23127783406112" class="icon-b-0" data-fill-palette-color="quaternary" id="b-0"><path d="M56.354 67.336H97.329L67.702 51.679V44.126C67.702 42.607 65.486 41.376 62.753 41.376 60.019 41.376 57.803 42.607 57.803 44.126V46.447L56.765 45.899 57.215 22.484C57.96 11.697 49.976 9.376 49.976 9.376S41.967 11.697 42.709 22.479L43.159 45.94 42.12 46.489V44.127C42.12 42.608 39.904 41.377 37.17 41.377S32.22 42.608 32.22 44.127V51.722L2.672 67.336H43.569L43.807 79.724 28.287 91 50 89.081 71.714 91 56.117 79.668z" fill="#97d5ee" data-fill-palette-color="quaternary"></path></svg></g></svg></g></svg></g></svg></g></svg></g><defs></defs></svg>